<svg width="26" height="26" viewBox="0 0 26 26" fill="none" xmlns="http://www.w3.org/2000/svg">
<path d="M25.5667 25.1333H23.7961C23.8173 24.9895 23.8334 24.8451 23.8334 24.7C23.8334 23.4932 23.1231 22.4515 22.1 21.9635V7.36668C22.1 7.1275 21.9064 6.93337 21.6667 6.93337H12.1333C11.8941 6.93337 11.7 7.1275 11.7 7.36668V20.8641C11.4495 20.6063 11.1592 20.3883 10.8333 20.2315V7.36668C10.8333 6.64996 11.4166 6.06668 12.1333 6.06668H15.1666V0.433316C15.1666 0.194137 14.973 0 14.7333 0H3.03332C2.79414 0 2.6 0.194137 2.6 0.433316V25.1333H0.433316C0.194137 25.1333 0 25.3275 0 25.5666C0 25.8058 0.194137 26 0.433316 26H3.03332H4.33332H14.7433H14.7515H23.2492H25.5666C25.8063 26 25.9999 25.8059 25.9999 25.5667C25.9999 25.3275 25.8063 25.1333 25.5667 25.1333ZM12.1333 2.16668C12.1333 1.9275 12.3275 1.73337 12.5666 1.73337C12.8063 1.73337 12.9999 1.9275 12.9999 2.16668V3.03337C12.9999 3.27255 12.8063 3.46668 12.5666 3.46668C12.3275 3.46668 12.1333 3.27255 12.1333 3.03337V2.16668ZM19.0667 9.1C19.0667 8.86082 19.2608 8.66668 19.5 8.66668C19.7396 8.66668 19.9333 8.86082 19.9333 9.1V9.96668C19.9333 10.2059 19.7396 10.4 19.5 10.4C19.2608 10.4 19.0667 10.2059 19.0667 9.96668V9.1ZM19.0667 11.7C19.0667 11.4608 19.2608 11.2667 19.5 11.2667C19.7396 11.2667 19.9333 11.4608 19.9333 11.7V12.5667C19.9333 12.8059 19.7396 13 19.5 13C19.2608 13 19.0667 12.8059 19.0667 12.5667V11.7ZM19.0667 14.3C19.0667 14.0608 19.2608 13.8667 19.5 13.8667C19.7396 13.8667 19.9333 14.0608 19.9333 14.3V15.1667C19.9333 15.4059 19.7396 15.6 19.5 15.6C19.2608 15.6 19.0667 15.4059 19.0667 15.1667V14.3ZM19.0667 16.9C19.0667 16.6608 19.2608 16.4667 19.5 16.4667C19.7396 16.4667 19.9333 16.6608 19.9333 16.9V17.7667C19.9333 18.0059 19.7396 18.2 19.5 18.2C19.2608 18.2 19.0667 18.0059 19.0667 17.7667V16.9ZM19.0667 19.5C19.0667 19.2608 19.2608 19.0667 19.5 19.0667C19.7396 19.0667 19.9333 19.2608 19.9333 19.5V20.3667C19.9333 20.6059 19.7396 20.8 19.5 20.8C19.2608 20.8 19.0667 20.6059 19.0667 20.3667V19.5ZM16.4667 9.1C16.4667 8.86082 16.6608 8.66668 16.9 8.66668C17.1396 8.66668 17.3333 8.86082 17.3333 9.1V9.96668C17.3333 10.2059 17.1396 10.4 16.9 10.4C16.6608 10.4 16.4667 10.2059 16.4667 9.96668V9.1ZM16.4667 11.7C16.4667 11.4608 16.6608 11.2667 16.9 11.2667C17.1396 11.2667 17.3333 11.4608 17.3333 11.7V12.5667C17.3333 12.8059 17.1396 13 16.9 13C16.6608 13 16.4667 12.8059 16.4667 12.5667V11.7ZM16.4667 14.3C16.4667 14.0608 16.6608 13.8667 16.9 13.8667C17.1396 13.8667 17.3333 14.0608 17.3333 14.3V15.1667C17.3333 15.4059 17.1396 15.6 16.9 15.6C16.6608 15.6 16.4667 15.4059 16.4667 15.1667V14.3ZM16.4667 16.9C16.4667 16.6608 16.6608 16.4667 16.9 16.4667C17.1396 16.4667 17.3333 16.6608 17.3333 16.9V17.7667C17.3333 18.0059 17.1396 18.2 16.9 18.2C16.6608 18.2 16.4667 18.0059 16.4667 17.7667V16.9ZM16.4667 19.5C16.4667 19.2608 16.6608 19.0667 16.9 19.0667C17.1396 19.0667 17.3333 19.2608 17.3333 19.5V20.3667C17.3333 20.6059 17.1396 20.8 16.9 20.8C16.6608 20.8 16.4667 20.6059 16.4667 20.3667V19.5ZM13.8667 9.1C13.8667 8.86082 14.0608 8.66668 14.3 8.66668C14.5396 8.66668 14.7333 8.86082 14.7333 9.1V9.96668C14.7333 10.2059 14.5396 10.4 14.3 10.4C14.0608 10.4 13.8667 10.2059 13.8667 9.96668V9.1ZM13.8667 11.7C13.8667 11.4608 14.0608 11.2667 14.3 11.2667C14.5396 11.2667 14.7333 11.4608 14.7333 11.7V12.5667C14.7333 12.8059 14.5396 13 14.3 13C14.0608 13 13.8667 12.8059 13.8667 12.5667V11.7ZM13.8667 14.3C13.8667 14.0608 14.0608 13.8667 14.3 13.8667C14.5396 13.8667 14.7333 14.0608 14.7333 14.3V15.1667C14.7333 15.4059 14.5396 15.6 14.3 15.6C14.0608 15.6 13.8667 15.4059 13.8667 15.1667V14.3ZM13.8667 16.9C13.8667 16.6608 14.0608 16.4667 14.3 16.4667C14.5396 16.4667 14.7333 16.6608 14.7333 16.9V17.7667C14.7333 18.0059 14.5396 18.2 14.3 18.2C14.0608 18.2 13.8667 18.0059 13.8667 17.7667V16.9ZM13.8667 19.5C13.8667 19.2608 14.0608 19.0667 14.3 19.0667C14.5396 19.0667 14.7333 19.2608 14.7333 19.5V20.3667C14.7333 20.6059 14.5396 20.8 14.3 20.8C14.0608 20.8 13.8667 20.6059 13.8667 20.3667V19.5ZM9.53332 2.16668C9.53332 1.9275 9.72745 1.73337 9.96663 1.73337C10.2063 1.73337 10.3999 1.9275 10.3999 2.16668V3.03337C10.3999 3.27255 10.2063 3.46668 9.96663 3.46668C9.72745 3.46668 9.53332 3.27255 9.53332 3.03337V2.16668ZM9.53332 4.76668C9.53332 4.5275 9.72745 4.33337 9.96663 4.33337C10.2063 4.33337 10.3999 4.5275 10.3999 4.76668V5.63337C10.3999 5.87255 10.2063 6.06668 9.96663 6.06668C9.72745 6.06668 9.53332 5.87255 9.53332 5.63337V4.76668ZM9.53332 7.36668C9.53332 7.1275 9.72745 6.93337 9.96663 6.93337C10.2063 6.93337 10.3999 7.1275 10.3999 7.36668V8.23337C10.3999 8.47255 10.2063 8.66668 9.96663 8.66668C9.72745 8.66668 9.53332 8.47255 9.53332 8.23337V7.36668ZM9.53332 9.96668C9.53332 9.7275 9.72745 9.53337 9.96663 9.53337C10.2063 9.53337 10.3999 9.7275 10.3999 9.96668V10.8334C10.3999 11.0725 10.2063 11.2667 9.96663 11.2667C9.72745 11.2667 9.53332 11.0725 9.53332 10.8334V9.96668ZM9.53332 12.5667C9.53332 12.3275 9.72745 12.1334 9.96663 12.1334C10.2063 12.1334 10.3999 12.3275 10.3999 12.5667V13.4334C10.3999 13.6725 10.2063 13.8667 9.96663 13.8667C9.72745 13.8667 9.53332 13.6725 9.53332 13.4334V12.5667ZM9.53332 15.1667C9.53332 14.9275 9.72745 14.7334 9.96663 14.7334C10.2063 14.7334 10.3999 14.9275 10.3999 15.1667V16.0334C10.3999 16.2725 10.2063 16.4667 9.96663 16.4667C9.72745 16.4667 9.53332 16.2725 9.53332 16.0334V15.1667ZM9.53332 17.7667C9.53332 17.5275 9.72745 17.3334 9.96663 17.3334C10.2063 17.3334 10.3999 17.5275 10.3999 17.7667V18.6334C10.3999 18.8725 10.2063 19.0667 9.96663 19.0667C9.72745 19.0667 9.53332 18.8725 9.53332 18.6334V17.7667ZM6.93332 2.16668C6.93332 1.9275 7.12745 1.73337 7.36663 1.73337C7.60627 1.73337 7.79995 1.9275 7.79995 2.16668V3.03337C7.79995 3.27255 7.60627 3.46668 7.36663 3.46668C7.12745 3.46668 6.93332 3.27255 6.93332 3.03337V2.16668ZM6.93332 4.76668C6.93332 4.5275 7.12745 4.33337 7.36663 4.33337C7.60627 4.33337 7.79995 4.5275 7.79995 4.76668V5.63337C7.79995 5.87255 7.60627 6.06668 7.36663 6.06668C7.12745 6.06668 6.93332 5.87255 6.93332 5.63337V4.76668ZM6.93332 7.36668C6.93332 7.1275 7.12745 6.93337 7.36663 6.93337C7.60627 6.93337 7.79995 7.1275 7.79995 7.36668V8.23337C7.79995 8.47255 7.60627 8.66668 7.36663 8.66668C7.12745 8.66668 6.93332 8.47255 6.93332 8.23337V7.36668ZM6.93332 9.96668C6.93332 9.7275 7.12745 9.53337 7.36663 9.53337C7.60627 9.53337 7.79995 9.7275 7.79995 9.96668V10.8334C7.79995 11.0725 7.60627 11.2667 7.36663 11.2667C7.12745 11.2667 6.93332 11.0725 6.93332 10.8334V9.96668ZM6.93332 12.5667C6.93332 12.3275 7.12745 12.1334 7.36663 12.1334C7.60627 12.1334 7.79995 12.3275 7.79995 12.5667V13.4334C7.79995 13.6725 7.60627 13.8667 7.36663 13.8667C7.12745 13.8667 6.93332 13.6725 6.93332 13.4334V12.5667ZM6.93332 15.1667C6.93332 14.9275 7.12745 14.7334 7.36663 14.7334C7.60627 14.7334 7.79995 14.9275 7.79995 15.1667V16.0334C7.79995 16.2725 7.60627 16.4667 7.36663 16.4667C7.12745 16.4667 6.93332 16.2725 6.93332 16.0334V15.1667ZM6.93332 17.7667C6.93332 17.5275 7.12745 17.3334 7.36663 17.3334C7.60627 17.3334 7.79995 17.5275 7.79995 17.7667V18.6334C7.79995 18.8725 7.60627 19.0667 7.36663 19.0667C7.12745 19.0667 6.93332 18.8725 6.93332 18.6334V17.7667ZM6.93332 20.3667C6.93332 20.1275 7.12745 19.9334 7.36663 19.9334C7.60627 19.9334 7.79995 20.1275 7.79995 20.3667V20.4815C7.46413 20.7168 7.17813 21.018 6.96059 21.3668C6.94627 21.3239 6.93327 21.2806 6.93327 21.2334V20.3667H6.93332ZM4.33332 2.16668C4.33332 1.9275 4.52745 1.73337 4.76663 1.73337C5.00627 1.73337 5.19995 1.9275 5.19995 2.16668V3.03337C5.19995 3.27255 5.00627 3.46668 4.76663 3.46668C4.52745 3.46668 4.33332 3.27255 4.33332 3.03337V2.16668ZM4.33332 4.76668C4.33332 4.5275 4.52745 4.33337 4.76663 4.33337C5.00627 4.33337 5.19995 4.5275 5.19995 4.76668V5.63337C5.19995 5.87255 5.00627 6.06668 4.76663 6.06668C4.52745 6.06668 4.33332 5.87255 4.33332 5.63337V4.76668ZM4.33332 7.36668C4.33332 7.1275 4.52745 6.93337 4.76663 6.93337C5.00627 6.93337 5.19995 7.1275 5.19995 7.36668V8.23337C5.19995 8.47255 5.00627 8.66668 4.76663 8.66668C4.52745 8.66668 4.33332 8.47255 4.33332 8.23337V7.36668ZM4.33332 9.96668C4.33332 9.7275 4.52745 9.53337 4.76663 9.53337C5.00627 9.53337 5.19995 9.7275 5.19995 9.96668V10.8334C5.19995 11.0725 5.00627 11.2667 4.76663 11.2667C4.52745 11.2667 4.33332 11.0725 4.33332 10.8334V9.96668ZM4.33332 12.5667C4.33332 12.3275 4.52745 12.1334 4.76663 12.1334C5.00627 12.1334 5.19995 12.3275 5.19995 12.5667V13.4334C5.19995 13.6725 5.00627 13.8667 4.76663 13.8667C4.52745 13.8667 4.33332 13.6725 4.33332 13.4334V12.5667ZM4.33332 15.1667C4.33332 14.9275 4.52745 14.7334 4.76663 14.7334C5.00627 14.7334 5.19995 14.9275 5.19995 15.1667V16.0334C5.19995 16.2725 5.00627 16.4667 4.76663 16.4667C4.52745 16.4667 4.33332 16.2725 4.33332 16.0334V15.1667ZM4.33332 17.7667C4.33332 17.5275 4.52745 17.3334 4.76663 17.3334C5.00627 17.3334 5.19995 17.5275 5.19995 17.7667V18.6334C5.19995 18.8725 5.00627 19.0667 4.76663 19.0667C4.52745 19.0667 4.33332 18.8725 4.33332 18.6334V17.7667ZM4.33332 20.3667C4.33332 20.1275 4.52745 19.9334 4.76663 19.9334C5.00627 19.9334 5.19995 20.1275 5.19995 20.3667V21.2334C5.19995 21.4725 5.00627 21.6667 4.76663 21.6667C4.52745 21.6667 4.33332 21.4725 4.33332 21.2334V20.3667ZM4.36018 23.965C4.34632 23.9226 4.33332 23.8801 4.33332 23.8333V22.9666C4.33332 22.7275 4.52745 22.5333 4.76663 22.5333C5.00627 22.5333 5.19995 22.7275 5.19995 22.9666V23.0814C4.86418 23.3164 4.57773 23.6167 4.36018 23.965ZM13.9286 23.7094C13.9278 23.7133 13.9265 23.7172 13.9256 23.7211C13.9083 23.8008 13.8953 23.8823 13.8857 23.9646C13.8849 23.9737 13.8827 23.9828 13.8818 23.9924C13.8723 24.0825 13.8666 24.1739 13.8666 24.2667C13.8666 24.4131 13.881 24.5583 13.9052 24.7009C13.9087 24.7199 13.916 24.7385 13.92 24.758C13.9446 24.8837 13.9771 25.0076 14.0205 25.1285C14.0214 25.1303 14.0214 25.132 14.0218 25.1333H4.81046C4.81091 25.1329 4.81091 25.1325 4.81091 25.132C4.81223 25.1242 4.81569 25.1173 4.81741 25.1094C4.84428 24.9846 4.88241 24.8642 4.92964 24.7485C4.94655 24.7073 4.9695 24.6696 4.9886 24.6298C5.02719 24.5504 5.06705 24.472 5.11428 24.3984C5.14201 24.3559 5.17364 24.316 5.20396 24.2757C5.25251 24.2112 5.30232 24.1479 5.35778 24.0894C5.39373 24.0509 5.43187 24.0145 5.47046 23.9789C5.5285 23.9252 5.58964 23.8749 5.65332 23.8281C5.69578 23.7964 5.73869 23.7657 5.78378 23.7375C5.85223 23.6942 5.92419 23.657 5.99742 23.6214C6.04378 23.5993 6.08842 23.5754 6.1361 23.5564C6.21928 23.5234 6.30642 23.4992 6.39392 23.4762C6.43683 23.4649 6.47796 23.4502 6.52219 23.4415C6.65564 23.4155 6.7926 23.4 6.93342 23.4C7.17305 23.4 7.36673 23.2058 7.36673 22.9666C7.36673 21.772 8.33914 20.7999 9.53342 20.7999C9.65864 20.7999 9.78087 20.813 9.90087 20.8338C9.98319 20.849 10.0625 20.8728 10.1414 20.897C10.1734 20.9066 10.2064 20.9135 10.2376 20.9244C10.3402 20.9612 10.4399 21.0058 10.5357 21.0574C10.5391 21.0591 10.5426 21.0609 10.5461 21.0626C10.6466 21.1172 10.7428 21.1796 10.8334 21.2485C11.272 21.5822 11.5887 22.0731 11.6736 22.6469C11.6996 22.8219 11.8292 22.9636 12.0012 23.0048C12.1741 23.0455 12.3531 22.978 12.4558 22.8341C12.4627 22.8241 12.4714 22.8155 12.4783 22.8055C12.4792 22.8046 12.4805 22.8042 12.4814 22.8029C12.5633 22.6929 12.6564 22.5945 12.7574 22.5087C12.7617 22.5048 12.7665 22.5017 12.7709 22.4983C12.8679 22.4172 12.9724 22.3483 13.0824 22.2911C13.0954 22.2846 13.1093 22.2795 13.1223 22.2734C13.2297 22.2214 13.3416 22.1785 13.4586 22.1499C13.4676 22.1477 13.4772 22.1468 13.4867 22.1447C13.6102 22.1165 13.7372 22.1 13.8668 22.1C13.9742 22.1 14.0791 22.1135 14.1822 22.1326C14.2061 22.1373 14.2303 22.1416 14.2537 22.1473C14.3543 22.1702 14.4526 22.2006 14.5467 22.2413C14.5584 22.2465 14.5692 22.2535 14.5805 22.2586C14.6308 22.2821 14.6776 22.3132 14.7257 22.3414C14.3316 22.698 14.0465 23.172 13.9286 23.7094ZM22.9216 25.1333H14.9855C14.9236 25.031 14.8694 24.9262 14.8304 24.8174C14.8282 24.81 14.8256 24.8031 14.823 24.7957C14.7984 24.7229 14.7801 24.6488 14.7654 24.5739C14.7624 24.5578 14.758 24.5418 14.7555 24.5253C14.7416 24.4399 14.7334 24.3537 14.7334 24.2666C14.7334 24.1626 14.7468 24.0625 14.7641 23.9637C14.7702 23.9317 14.7767 23.8996 14.7841 23.8684C14.8006 23.7991 14.8226 23.7323 14.8469 23.6664C14.8699 23.6062 14.8963 23.5473 14.9258 23.4896C14.9475 23.4476 14.9687 23.4056 14.9934 23.3657C15.0263 23.3129 15.0623 23.2613 15.1013 23.2119C15.1121 23.198 15.1238 23.1846 15.1351 23.1707C15.2772 23.0009 15.4519 22.8553 15.6556 22.746C15.6556 22.746 15.6556 22.746 15.656 22.7456C16.4737 22.3084 17.4223 22.6134 17.8942 23.3033C17.9067 23.3224 17.9202 23.3406 17.9319 23.3601C17.9912 23.455 18.0441 23.5546 18.0844 23.6617C18.1446 23.8224 18.2937 23.9325 18.4649 23.9425C18.4736 23.9429 18.4818 23.9434 18.4904 23.9434C18.5021 23.9434 18.513 23.9394 18.5246 23.9386C18.6746 23.9299 18.8063 23.8433 18.8756 23.7085C18.9316 23.5997 18.9983 23.4983 19.0711 23.4021C19.0863 23.3818 19.1031 23.3631 19.1188 23.3432C19.1855 23.2613 19.2566 23.1833 19.3337 23.1122C19.3428 23.1044 19.3511 23.0958 19.3602 23.0879C19.6423 22.8375 19.9855 22.6633 20.3542 22.5844C20.3582 22.5835 20.3621 22.5831 20.3659 22.5822C20.4877 22.5567 20.6121 22.5415 20.7377 22.5376C20.7399 22.5376 20.7417 22.5371 20.7438 22.5371C20.8248 22.5349 20.9067 22.5454 20.9882 22.5523C21.0493 22.5575 21.1108 22.5605 21.1702 22.5705C21.2495 22.5844 21.3284 22.6073 21.4072 22.6303C22.3051 22.8951 22.9668 23.7175 22.9668 24.6999C22.9667 24.8447 22.9515 24.9895 22.9216 25.1333Z" fill="#27374D"/>
</svg>
