<svg width="20" height="26" viewBox="0 0 20 26" fill="none" xmlns="http://www.w3.org/2000/svg">
<path d="M20 21.125V1.625C20 0.726781 19.3611 0 18.5714 0H3.57143V20.7188V21.9375H18.5714V25.1875H2.14286C1.35393 25.1875 0.714286 24.4599 0.714286 23.5625C0.714286 22.6651 1.35393 21.9375 2.14286 21.9375H2.85714V20.7188V0H1.42857C0.638929 0 0 0.726781 0 1.625V23.5625C0 24.9084 0.959643 26 2.14286 26H19.6429C19.8404 26 20 25.8184 20 25.5938C20 25.3691 19.8404 25.1875 19.6429 25.1875H19.2857V21.9375C19.68 21.9375 20 21.5735 20 21.125ZM6.78571 5.6875H11.0714C11.2689 5.6875 11.4286 5.86909 11.4286 6.09375C11.4286 6.31841 11.2689 6.5 11.0714 6.5H6.78571C6.58821 6.5 6.42857 6.31841 6.42857 6.09375C6.42857 5.86909 6.58821 5.6875 6.78571 5.6875ZM13.5714 11.375H6.78571C6.58821 11.375 6.42857 11.1934 6.42857 10.9688C6.42857 10.7441 6.58821 10.5625 6.78571 10.5625H13.5714C13.7689 10.5625 13.9286 10.7441 13.9286 10.9688C13.9286 11.1934 13.7689 11.375 13.5714 11.375ZM16.0714 8.9375H6.78571C6.58821 8.9375 6.42857 8.75591 6.42857 8.53125C6.42857 8.30659 6.58821 8.125 6.78571 8.125H16.0714C16.2689 8.125 16.4286 8.30659 16.4286 8.53125C16.4286 8.75591 16.2689 8.9375 16.0714 8.9375Z" fill="#999999"/>
</svg>
