<svg width="26" height="26" viewBox="0 0 26 26" fill="none" xmlns="http://www.w3.org/2000/svg">
<path d="M13 26C5.8201 26 0 20.1799 0 13C0 5.8201 5.8201 0 13 0C20.1799 0 26 5.8201 26 13C26 20.1799 20.1799 26 13 26ZM7.696 9.4042V9.5368C7.696 9.70919 7.76448 9.87452 7.88638 9.99642C8.00828 10.1183 8.17361 10.1868 8.346 10.1868H9.6421C9.72729 10.1868 9.81164 10.17 9.89035 10.1374C9.96905 10.1048 10.0406 10.057 10.1008 9.9968C10.161 9.93656 10.2088 9.86505 10.2414 9.78635C10.274 9.70764 10.2908 9.62329 10.2908 9.5381C10.2908 7.8611 11.5882 6.9654 13.3328 6.9654C15.0332 6.9654 16.1512 7.8611 16.1512 9.1364C16.1512 10.3428 15.5246 10.9031 13.9594 11.6194L13.5122 11.8196C12.1927 12.402 11.7 13.273 11.7 14.7953V14.95C11.7 15.1224 11.7685 15.2877 11.8904 15.4096C12.0123 15.5315 12.1776 15.6 12.35 15.6H13.6461C13.7313 15.6 13.8156 15.5832 13.8943 15.5506C13.9731 15.518 14.0446 15.4702 14.1048 15.41C14.165 15.3498 14.2128 15.2783 14.2454 15.1995C14.278 15.1208 14.2948 15.0365 14.2948 14.9513C14.2948 14.2805 14.4742 14.0114 15.0098 13.7657L15.4583 13.5642C17.3368 12.714 18.746 11.596 18.746 9.1572V9.0233C18.746 6.4519 16.51 4.55 13.3328 4.55C10.1114 4.55 7.696 6.4064 7.696 9.4042ZM11.05 19.4883C11.05 20.6154 11.9067 21.45 12.9883 21.45C14.0933 21.45 14.95 20.6154 14.95 19.4883C14.95 18.3612 14.0933 17.55 12.9883 17.55C11.9067 17.55 11.05 18.3612 11.05 19.4883Z" fill="#999999"/>
</svg>
