<svg width="19" height="22" viewBox="0 0 19 22" fill="none" xmlns="http://www.w3.org/2000/svg">
<path d="M16.2059 8.18605C16.2059 6.55774 15.4994 4.99613 14.2418 3.84474C12.9842 2.69335 11.2785 2.04651 9.5 2.04651C7.72149 2.04651 6.01582 2.69335 4.75823 3.84474C3.50063 4.99613 2.79412 6.55774 2.79412 8.18605V16.3721H16.2059V8.18605ZM18.4412 17.0546L18.8882 17.6C18.9505 17.676 18.9884 17.7664 18.9977 17.861C19.0071 17.9557 18.9874 18.0508 18.941 18.1358C18.8946 18.2208 18.8232 18.2922 18.735 18.3422C18.6467 18.3921 18.545 18.4186 18.4412 18.4186H0.558824C0.455044 18.4186 0.353314 18.3921 0.265033 18.3422C0.176752 18.2922 0.105409 18.2208 0.0589968 18.1358C0.0125848 18.0508 -0.00706174 17.9557 0.0022583 17.861C0.0115783 17.7664 0.0494967 17.676 0.111765 17.6L0.558824 17.0546V8.18605C0.558824 6.01497 1.50084 3.93282 3.17763 2.39764C4.85443 0.862456 7.12865 0 9.5 0C11.8713 0 14.1456 0.862456 15.8224 2.39764C17.4992 3.93282 18.4412 6.01497 18.4412 8.18605V17.0546ZM6.70588 19.4419H12.2941C12.2941 20.1203 11.9997 20.771 11.4757 21.2507C10.9517 21.7305 10.241 22 9.5 22C8.75895 22 8.04826 21.7305 7.52426 21.2507C7.00026 20.771 6.70588 20.1203 6.70588 19.4419Z" fill="white"/>
</svg>
