<svg width="24" height="24" viewBox="0 0 24 24" fill="none" xmlns="http://www.w3.org/2000/svg">
<g id="IC_Notification">
<path id="Vector" d="M16.4705 10.0209C16.4705 8.68867 15.9499 7.41098 15.0232 6.46894C14.0966 5.5269 12.8398 4.99766 11.5293 4.99766C10.2188 4.99766 8.96201 5.5269 8.03536 6.46894C7.10871 7.41098 6.58812 8.68867 6.58812 10.0209V16.7186H16.4705V10.0209ZM18.1175 17.277L18.4469 17.7232C18.4928 17.7854 18.5208 17.8594 18.5276 17.9368C18.5345 18.0142 18.52 18.0921 18.4858 18.1616C18.4516 18.2311 18.3991 18.2896 18.334 18.3305C18.269 18.3714 18.194 18.393 18.1175 18.393H4.94106C4.86459 18.393 4.78963 18.3714 4.72458 18.3305C4.65954 18.2896 4.60697 18.2311 4.57277 18.1616C4.53857 18.0921 4.52409 18.0142 4.53096 17.9368C4.53783 17.8594 4.56577 17.7854 4.61165 17.7232L4.94106 17.277V10.0209C4.94106 8.24458 5.63518 6.541 6.87071 5.28495C8.10625 4.02889 9.78199 3.32324 11.5293 3.32324C13.2766 3.32324 14.9523 4.02889 16.1879 5.28495C17.4234 6.541 18.1175 8.24458 18.1175 10.0209V17.277ZM9.47047 19.2302H13.5881C13.5881 19.7853 13.3712 20.3177 12.9851 20.7102C12.599 21.1027 12.0753 21.3232 11.5293 21.3232C10.9833 21.3232 10.4596 21.1027 10.0735 20.7102C9.68738 20.3177 9.47047 19.7853 9.47047 19.2302Z" fill="black"/>
<circle id="Ellipse 1" cx="16" cy="5" r="3" fill="#B00020"/>
</g>
</svg>
